<?xml version="1.0" encoding="utf-8"?>
<!-- Generator: Adobe Illustrator 23.0.0, SVG Export Plug-In . SVG Version: 6.00 Build 0)  -->
<svg version="1.1" id="Layer_1" xmlns="http://www.w3.org/2000/svg" xmlns:xlink="http://www.w3.org/1999/xlink" x="0px" y="0px"
	 viewBox="0 0 595.43 562.67" style="enable-background:new 0 0 595.43 562.67;" xml:space="preserve">
<style type="text/css">
	.st0{fill:#FBB03B;}
	.st1{fill:#C1272D;}
	.st2{fill:#FF0000;}
	.st3{fill:#C69C6D;}
</style>
<g>
	<path class="st0" d="M281.33,281.33L413.34,32.85C373.97,11.89,329.04,0,281.33,0C125.96,0,0,125.96,0,281.33
		s125.96,281.33,281.33,281.33s281.33-125.96,281.33-281.33c0-26.66-3.71-52.45-10.64-76.89L281.33,281.33z"/>
	<path class="st0" d="M324.74,248.48L456.74,0c0,0,85.05,54.06,138.69,171.59L324.74,248.48z"/>
	<path d="M433.71,32.85"/>
	<path class="st1" d="M281.33,281.33L395.77,65.92c-34.13-18.17-73.08-28.48-114.44-28.48c-134.7,0-243.9,109.2-243.9,243.9
		s109.2,243.9,243.9,243.9s243.9-109.2,243.9-243.9c0-23.11-3.22-45.47-9.22-66.66L281.33,281.33z"/>
	<path class="st1" d="M324.74,248.48L439.85,31.79c0,0,74.17,47.14,120.94,149.64L324.74,248.48z"/>
	<circle class="st2" cx="281.33" cy="96.24" r="28"/>
	<circle class="st2" cx="225.33" cy="196.14" r="28"/>
	<circle class="st2" cx="119.71" cy="168.14" r="28"/>
	<circle class="st2" cx="449.43" cy="96.24" r="28"/>
	<circle class="st2" cx="82.37" cy="309.33" r="28"/>
	<circle class="st2" cx="460.09" cy="281.33" r="28"/>
	<circle class="st2" cx="362.37" cy="334.31" r="28"/>
	<circle class="st2" cx="380.74" cy="436.98" r="28"/>
	<circle class="st2" cx="232.26" cy="318.31" r="28"/>
	<circle class="st2" cx="232.26" cy="464.98" r="28"/>
	<path class="st3" d="M317.81,387.44c0-7.47-4.75-13.83-11.39-16.23c-4.62-2.86-10.8-4.61-17.6-4.61c-7.16,0-13.65,1.94-18.33,5.08
		c-6.03,2.69-10.23,8.73-10.23,15.76c0,9.3,7.36,16.88,16.58,17.23v8.53c0,4.44,3.63,8.07,8.07,8.07h8.74
		c4.44,0,8.07-3.63,8.07-8.07v-8.56C310.7,404.05,317.81,396.58,317.81,387.44z"/>
	<path class="st3" d="M187.93,254.48c0-7.47-4.75-13.83-11.39-16.23c-4.62-2.86-10.8-4.61-17.6-4.61c-7.16,0-13.65,1.94-18.33,5.08
		c-6.03,2.69-10.23,8.73-10.23,15.76c0,9.3,7.36,16.88,16.58,17.23v8.53c0,4.44,3.63,8.07,8.07,8.07h8.74
		c4.44,0,8.07-3.63,8.07-8.07v-8.56C180.81,271.1,187.93,263.62,187.93,254.48z"/>
	<path class="st3" d="M226.11,106.31c0-7.47-4.75-13.83-11.39-16.23c-4.62-2.86-10.8-4.61-17.6-4.61c-7.16,0-13.65,1.94-18.33,5.08
		c-6.03,2.69-10.23,8.73-10.23,15.76c0,9.3,7.36,16.88,16.58,17.23v8.53c0,4.44,3.63,8.07,8.07,8.07h8.74
		c4.44,0,8.07-3.63,8.07-8.07v-8.56C219,122.93,226.11,115.45,226.11,106.31z"/>
	<path class="st3" d="M471.54,360.1c0-7.47-4.75-13.83-11.39-16.23c-4.62-2.86-10.8-4.61-17.6-4.61c-7.16,0-13.65,1.94-18.33,5.08
		c-6.03,2.69-10.23,8.73-10.23,15.76c0,9.3,7.36,16.88,16.58,17.23v8.53c0,4.44,3.63,8.07,8.07,8.07h8.74
		c4.44,0,8.07-3.63,8.07-8.07v-8.56C464.43,376.72,471.54,369.24,471.54,360.1z"/>
	<path class="st3" d="M176.48,387.44c0-7.47-4.75-13.83-11.39-16.23c-4.62-2.86-10.8-4.61-17.6-4.61c-7.16,0-13.65,1.94-18.33,5.08
		c-6.03,2.69-10.23,8.73-10.23,15.76c0,9.3,7.36,16.88,16.58,17.23v8.53c0,4.44,3.63,8.07,8.07,8.07h8.74
		c4.44,0,8.07-3.63,8.07-8.07v-8.56C169.37,404.05,176.48,396.58,176.48,387.44z"/>
	<path class="st3" d="M437.51,179.74c0-7.47-4.75-13.83-11.39-16.23c-4.62-2.86-10.8-4.61-17.6-4.61c-7.16,0-13.65,1.94-18.33,5.08
		c-6.03,2.69-10.23,8.73-10.23,15.76c0,9.3,7.36,16.88,16.58,17.23v8.53c0,4.44,3.63,8.07,8.07,8.07h8.74
		c4.44,0,8.07-3.63,8.07-8.07v-8.56C430.4,196.36,437.51,188.89,437.51,179.74z"/>
	<circle class="st2" cx="499.54" cy="158.24" r="28"/>
</g>
</svg>
